<svg width="32" height="32" viewBox="0 0 32 32" fill="none" xmlns="http://www.w3.org/2000/svg">
<path d="M7.11538 3.5H17.8825C19.2654 3.5 20.5941 4.03748 21.5881 4.99893L24.8756 8.17882C25.9138 9.18301 26.5 10.5655 26.5 12.0099V26.9375C26.5 27.8005 25.7768 28.5 24.8846 28.5H7.11538C6.22321 28.5 5.5 27.8005 5.5 26.9375V5.0625C5.5 4.19953 6.22321 3.5 7.11538 3.5Z" fill="url(#paint0_linear_160_1657)"/>
<g filter="url(#filter0_di_160_1657)">
<path fill-rule="evenodd" clip-rule="evenodd" d="M15.9998 13.6075C14.4666 13.6075 13.1982 14.6468 12.9872 15.9988C12.9531 16.2171 12.7773 16.3973 12.5564 16.3973H11.0152C10.7943 16.3973 10.6134 16.2176 10.6326 15.9975C10.8547 13.4585 13.1728 11.4614 15.9998 11.4614C18.8269 11.4614 21.145 13.4585 21.3671 15.9975C21.3863 16.2176 21.2054 16.3973 20.9845 16.3973H19.4433C19.2224 16.3973 19.0466 16.2171 19.0125 15.9988C18.8015 14.6468 17.5331 13.6075 15.9998 13.6075Z" fill="white"/>
<path fill-rule="evenodd" clip-rule="evenodd" d="M21.3845 20.036C21.3845 20.2569 21.2054 20.436 20.9845 20.436H11.0152C10.7943 20.436 10.6152 20.2569 10.6152 20.036V18.5924C10.6152 18.3715 10.7943 18.1924 11.0152 18.1924H20.9845C21.2054 18.1924 21.3845 18.3715 21.3845 18.5924V20.036Z" fill="white"/>
</g>
<defs>
<filter id="filter0_di_160_1657" x="9.61523" y="11.4614" width="12.7695" height="10.9746" filterUnits="userSpaceOnUse" color-interpolation-filters="sRGB">
<feFlood flood-opacity="0" result="BackgroundImageFix"/>
<feColorMatrix in="SourceAlpha" type="matrix" values="0 0 0 0 0 0 0 0 0 0 0 0 0 0 0 0 0 0 127 0" result="hardAlpha"/>
<feOffset dy="1"/>
<feGaussianBlur stdDeviation="0.5"/>
<feComposite in2="hardAlpha" operator="out"/>
<feColorMatrix type="matrix" values="0 0 0 0 0 0 0 0 0 0.34 0 0 0 0 1 0 0 0 0.34 0"/>
<feBlend mode="normal" in2="BackgroundImageFix" result="effect1_dropShadow_160_1657"/>
<feBlend mode="normal" in="SourceGraphic" in2="effect1_dropShadow_160_1657" result="shape"/>
<feColorMatrix in="SourceAlpha" type="matrix" values="0 0 0 0 0 0 0 0 0 0 0 0 0 0 0 0 0 0 127 0" result="hardAlpha"/>
<feOffset dy="0.8"/>
<feGaussianBlur stdDeviation="0.4"/>
<feComposite in2="hardAlpha" operator="arithmetic" k2="-1" k3="1"/>
<feColorMatrix type="matrix" values="0 0 0 0 0.201389 0 0 0 0 0.131944 0 0 0 0 1 0 0 0 0.18 0"/>
<feBlend mode="normal" in2="shape" result="effect2_innerShadow_160_1657"/>
</filter>
<linearGradient id="paint0_linear_160_1657" x1="16" y1="3.5" x2="16" y2="28.5" gradientUnits="userSpaceOnUse">
<stop stop-color="#55B7FF"/>
<stop offset="1" stop-color="#2EA6FC"/>
</linearGradient>
</defs>
</svg>
