<svg width="24" height="24" viewBox="0 0 24 24" fill="none" xmlns="http://www.w3.org/2000/svg">
<path d="M12.6202 7.15696L11.4699 6.32044C11.2406 6.11469 10.9437 6 10.6368 6H7.32108C6.23832 6 5.36133 6.63751 5.36133 7.42343V13.5084C5.36133 14.1156 5.88415 14.6317 6.61611 14.8374C6.60262 14.7733 6.59587 14.7093 6.59587 14.6418V8.55678C6.59587 7.77086 7.47287 7.13335 8.55562 7.13335H11.8713L12.6202 7.15696Z" fill="url(#paint0_linear_239_3071)"/>
<path d="M17.5887 9.76774C18.921 9.76774 20.0004 10.8505 20.0004 12.1795V17.1413C20.0004 17.9272 19.1234 18.5647 18.0407 18.5647H9.55741C8.47465 18.5647 7.59766 17.9272 7.59766 17.1413V9.36972C7.59766 8.5838 8.47465 7.94629 9.55741 7.94629H12.8731C13.1801 7.94629 13.4769 8.06097 13.7063 8.26673L14.843 9.28877C15.1871 9.59909 15.6323 9.76774 16.0944 9.77112L17.5887 9.76774Z" fill="url(#paint1_linear_239_3071)"/>
<path d="M12.5748 6.6518C13.3916 6.24527 14.2297 6.18891 15.0754 6.54421C15.6172 6.76982 16.0118 7.15494 16.1965 7.7298C16.2244 7.81281 16.2491 7.89936 16.2571 7.99014C16.2595 8.03731 16.2744 8.06357 16.3315 8.05727C16.4153 8.04623 16.5031 8.04512 16.5871 8.03744C16.5912 8.05075 16.5949 8.05731 16.5949 8.05731C16.3966 8.27348 16.2014 8.4861 16.0029 8.6989C15.9901 8.71306 15.9821 8.75401 15.9431 8.71885C15.72 8.51747 15.497 8.31609 15.2668 8.10833C15.3576 8.10031 15.445 8.09246 15.5294 8.09153C15.5835 8.09214 15.6031 8.081 15.5899 8.02088C15.5068 7.65023 15.2862 7.36429 15.0007 7.13233C14.5708 6.78279 14.0712 6.5888 13.5183 6.54277C13.2028 6.51499 12.8942 6.55779 12.5959 6.66761C12.5758 6.67201 12.5721 6.66545 12.5748 6.6518Z" fill="url(#paint2_linear_239_3071)"/>
<path d="M8.53756 18.9551C7.62517 18.9935 6.83789 18.7051 6.20535 18.0404C5.80023 17.6129 5.59888 17.1027 5.66075 16.5036C5.66993 16.4161 5.68304 16.326 5.71214 16.2421C5.72729 16.1969 5.72552 16.1691 5.67034 16.1522C5.58922 16.127 5.506 16.0946 5.42881 16.0667C5.43125 16.0534 5.42915 16.0462 5.43246 16.0468C5.70055 15.9314 5.96531 15.8153 6.2334 15.6999C6.25181 15.693 6.2757 15.6562 6.29765 15.7048C6.41851 15.9807 6.54329 16.254 6.67018 16.5344C6.58364 16.5014 6.50252 16.4763 6.42262 16.4445C6.37197 16.4214 6.35085 16.4244 6.33929 16.4875C6.26721 16.8618 6.35084 17.2097 6.52019 17.5392C6.77225 18.0346 7.14879 18.4123 7.63471 18.6798C7.91173 18.8335 8.21149 18.9193 8.52673 18.9394C8.54514 18.9325 8.54332 18.9425 8.53756 18.9551Z" fill="url(#paint3_linear_239_3071)"/>
<circle cx="12" cy="12" r="11.75" stroke="#F1C898" stroke-width="0.5"/>
<defs>
<linearGradient id="paint0_linear_239_3071" x1="13.0427" y1="8.22066" x2="3.23995" y2="11.107" gradientUnits="userSpaceOnUse">
<stop stop-color="#F0ACAD"/>
<stop offset="1" stop-color="#F6C271"/>
</linearGradient>
<linearGradient id="paint1_linear_239_3071" x1="20.7223" y1="10.6145" x2="5.23594" y2="17.0988" gradientUnits="userSpaceOnUse">
<stop stop-color="#F0ACAD"/>
<stop offset="1" stop-color="#F6C271"/>
</linearGradient>
<linearGradient id="paint2_linear_239_3071" x1="16.7604" y1="6.79759" x2="12.4835" y2="9.48579" gradientUnits="userSpaceOnUse">
<stop stop-color="#F0ACAD"/>
<stop offset="1" stop-color="#F6C271"/>
</linearGradient>
<linearGradient id="paint3_linear_239_3071" x1="9.12032" y1="16.9433" x2="4.4459" y2="18.0641" gradientUnits="userSpaceOnUse">
<stop stop-color="#F0ACAD"/>
<stop offset="1" stop-color="#F6C271"/>
</linearGradient>
</defs>
</svg>
