<svg width="24" height="24" viewBox="0 0 24 24" fill="none" xmlns="http://www.w3.org/2000/svg">
<path d="M17.9664 7.59312L15.3685 5.0032C14.725 4.35971 13.8537 4 12.9464 4H8.01039C6.89928 4 6 4.89928 6 6.01039V16.9896C6 18.1007 6.89928 19 8.01039 19H11.1639V17.2134H10.3205C10.1687 17.2134 10.0887 17.0336 10.1886 16.9217L12.235 14.6595C12.303 14.5835 12.4269 14.5835 12.4948 14.6595L14.5412 16.9217C14.6451 17.0336 14.5651 17.2134 14.4093 17.2134H13.5659V19H16.7194C17.8305 19 18.7298 18.1007 18.7298 16.9896V9.43565C18.7338 8.7442 18.458 8.08073 17.9664 7.59312ZM11.6315 11.502H9.16147C9.18945 11.2182 9.27738 10.9544 9.41727 10.7026C9.56115 10.4548 9.82894 10.1591 10.2246 9.81934C10.4644 9.61151 10.6203 9.45563 10.6882 9.34772C10.7562 9.2398 10.7882 9.13589 10.7882 9.03996C10.7882 8.93605 10.7562 8.84412 10.6882 8.77218C10.6203 8.70023 10.5364 8.66027 10.4365 8.66027C10.3325 8.66027 10.2446 8.70024 10.1807 8.77618C10.1167 8.85212 10.0687 8.98801 10.0448 9.17985L9.22142 9.10391C9.2534 8.83613 9.31335 8.6243 9.40128 8.47642C9.48921 8.32854 9.60911 8.20863 9.76499 8.12869C9.92086 8.04876 10.1407 8.00879 10.4165 8.00879C10.7042 8.00879 10.9321 8.04876 11.0919 8.1247C11.2518 8.20064 11.3797 8.32054 11.4716 8.47642C11.5635 8.63629 11.6115 8.81215 11.6115 9.00799C11.6115 9.21583 11.5596 9.41567 11.4516 9.60751C11.3437 9.79936 11.1519 10.0072 10.8761 10.235C10.7122 10.3669 10.6003 10.4588 10.5444 10.5148C10.4884 10.5707 10.4245 10.6387 10.3485 10.7226H11.6355V11.502H11.6315ZM15.0927 8.91606H14.1575V11.502H13.2422V8.91606H12.307V8.06874H15.0887V8.91606H15.0927Z" fill="url(#paint0_linear_239_3113)"/>
<circle cx="12" cy="12" r="11.75" stroke="#F1C898" stroke-width="0.5"/>
<defs>
<linearGradient id="paint0_linear_239_3113" x1="19.789" y1="12.3933" x2="4.60112" y2="13.1926" gradientUnits="userSpaceOnUse">
<stop stop-color="#F0ACAD"/>
<stop offset="1" stop-color="#F6C271"/>
</linearGradient>
</defs>
</svg>
