<svg width="24" height="24" viewBox="0 0 24 24" fill="none" xmlns="http://www.w3.org/2000/svg">
<path d="M17.0824 7.20756H15.2748C14.7157 7.20756 14.1771 6.99946 13.7609 6.62405L12.3857 5.38765C12.1083 5.13874 11.7492 5 11.3779 5H7.37078C6.06094 5 5 5.77122 5 6.72198V16.1235C5 17.0743 6.06094 17.8455 7.37078 17.8455H17.6292C18.9391 17.8455 20 17.0743 20 16.1235V10.1211C20 8.51742 18.6942 7.20756 17.0824 7.20756ZM12.5082 14.2505C12.5082 14.6096 12.2184 14.9034 11.8553 14.9034H7.14635C6.78727 14.9034 6.49347 14.6137 6.49347 14.2505V14.1934C6.49347 13.8343 6.78727 13.5405 7.14635 13.5405H11.8553C12.2144 13.5405 12.5082 13.8302 12.5082 14.1934V14.2505Z" fill="url(#paint0_linear_239_3090)"/>
<circle cx="12" cy="12" r="11.75" stroke="#F1C898" stroke-width="0.5"/>
<defs>
<linearGradient id="paint0_linear_239_3090" x1="19.4859" y1="7.18312" x2="4.38792" y2="17.1804" gradientUnits="userSpaceOnUse">
<stop stop-color="#F1AFA4"/>
<stop offset="1" stop-color="#F5BF7B"/>
</linearGradient>
</defs>
</svg>
