<svg width="24" height="24" viewBox="0 0 24 24" fill="none" xmlns="http://www.w3.org/2000/svg">
<path d="M16.8099 12.4741C15.0516 12.4741 13.6279 13.8978 13.6279 15.6561C13.6279 17.4143 15.0516 18.838 16.8099 18.838C18.5681 18.838 19.9918 17.4143 19.9918 15.6561C19.9918 13.8978 18.5681 12.4741 16.8099 12.4741ZM18.1724 16.2272H17.0669V16.631C17.0669 16.7045 16.9567 16.7412 16.8874 16.6922L15.4881 15.7173C15.4392 15.6846 15.4392 15.6275 15.4881 15.5949L16.8874 14.6199C16.9567 14.5709 17.0669 14.6076 17.0669 14.6811V15.0849H18.1724V16.2272Z" fill="url(#paint0_linear_239_3081)"/>
<path d="M8.59863 9.21044H8.93314L8.76589 8.57812L8.59863 9.21044Z" fill="url(#paint1_linear_239_3081)"/>
<path d="M17.0791 8.20696H15.272C14.7131 8.20696 14.1746 7.99892 13.7585 7.62361L12.3837 6.38755C12.1063 6.13871 11.7473 6 11.3761 6H7.37014C6.06065 6 5 6.77101 5 7.72151V17.1205C5 18.071 6.06065 18.842 7.37014 18.842H14.0114C13.1262 18.0628 12.5632 16.9247 12.5632 15.6519C12.5632 13.3021 14.4683 11.4011 16.814 11.4011C18.0827 11.4011 19.2208 11.96 20 12.8412V11.1197C19.9959 9.51238 18.6905 8.20696 17.0791 8.20696ZM7.80256 9.87544H7.36198L6.79086 8.9127V9.87544H6.34621V8.12538H6.78678L7.3579 9.09628V8.12538H7.80256V9.87544ZM9.10797 9.87544L9.03046 9.58581H8.49606L8.42263 9.87544H7.94126L8.51237 8.12538H9.02638L9.5975 9.87544H9.10797ZM10.9641 9.61844C10.9111 9.71227 10.8336 9.7857 10.7397 9.83465C10.6418 9.8836 10.5194 9.90808 10.3726 9.90808C10.1156 9.90808 9.93609 9.85097 9.8341 9.73674C9.7362 9.62252 9.67909 9.47566 9.66685 9.30025L10.1156 9.26761C10.1237 9.35328 10.1441 9.41447 10.1768 9.45935C10.2257 9.5287 10.2951 9.56541 10.3848 9.56541C10.4501 9.56541 10.5031 9.54909 10.5398 9.51237C10.5766 9.47566 10.5929 9.43487 10.5929 9.38591C10.5929 9.34104 10.5766 9.30024 10.5398 9.26353C10.5072 9.22682 10.4256 9.19418 10.2992 9.16154C10.0911 9.10851 9.94425 9.03917 9.85858 8.94942C9.76883 8.85967 9.72396 8.74953 9.72396 8.61083C9.72396 8.52108 9.74844 8.43541 9.79331 8.3579C9.83818 8.27631 9.90753 8.21512 9.99728 8.17025C10.087 8.12538 10.2135 8.1009 10.3726 8.1009C10.5684 8.1009 10.7153 8.14169 10.8172 8.22736C10.9192 8.31303 10.9804 8.44357 11.0008 8.62307L10.5562 8.65162C10.5439 8.57411 10.5194 8.517 10.4827 8.48028C10.446 8.44357 10.393 8.42726 10.3277 8.42726C10.2747 8.42726 10.2298 8.43949 10.2053 8.46805C10.1768 8.4966 10.1645 8.52924 10.1645 8.56595C10.1645 8.59451 10.1768 8.61898 10.1972 8.63938C10.2176 8.66386 10.2706 8.68426 10.3563 8.70465C10.5602 8.75361 10.7071 8.80664 10.7968 8.85967C10.8866 8.9127 10.9519 8.97797 10.9927 9.05548C11.0335 9.13299 11.0538 9.21866 11.0538 9.31656C11.0457 9.41855 11.0212 9.52462 10.9641 9.61844Z" fill="url(#paint2_linear_239_3081)"/>
<circle cx="12" cy="12" r="11.75" stroke="#F1C898" stroke-width="0.5"/>
<defs>
<linearGradient id="paint0_linear_239_3081" x1="19.843" y1="13.5051" x2="13.4328" y2="17.6007" gradientUnits="userSpaceOnUse">
<stop stop-color="#F0AAB1"/>
<stop offset="1" stop-color="#F6C271"/>
</linearGradient>
<linearGradient id="paint1_linear_239_3081" x1="8.92532" y1="8.68057" x2="8.49948" y2="8.8245" gradientUnits="userSpaceOnUse">
<stop stop-color="#F0AAB1"/>
<stop offset="1" stop-color="#F6C271"/>
</linearGradient>
<linearGradient id="paint2_linear_239_3081" x1="19.6492" y1="8.08054" x2="5.9832" y2="18.2791" gradientUnits="userSpaceOnUse">
<stop stop-color="#F0AAB1"/>
<stop offset="1" stop-color="#F6C271"/>
</linearGradient>
</defs>
</svg>
