<svg width="14" height="14" viewBox="0 0 14 14" fill="none" xmlns="http://www.w3.org/2000/svg">
<rect width="14" height="14" fill="#D9D9D9" fill-opacity="0.01"/>
<path fill-rule="evenodd" clip-rule="evenodd" d="M7.75 1.22619C7.75 0.963198 7.52614 0.75 7.25 0.75C6.97386 0.75 6.75 0.963198 6.75 1.22619V9.04289L3.10355 5.39645C2.90829 5.20118 2.59171 5.20118 2.39645 5.39645C2.20118 5.59171 2.20118 5.90829 2.39645 6.10355L6.8419 10.549C6.86988 10.5866 6.90342 10.6201 6.9414 10.6485L7.10858 10.8157C7.18668 10.8938 7.31332 10.8938 7.39142 10.8157L7.55861 10.6485C7.59658 10.6201 7.63012 10.5866 7.65809 10.549L12.1036 6.10355C12.2988 5.90829 12.2988 5.59171 12.1036 5.39645C11.9083 5.20118 11.5917 5.20118 11.3964 5.39645L7.75 9.04289V1.22619Z" fill="#0095FF"/>
<path fill-rule="evenodd" clip-rule="evenodd" d="M1.25 11.25V8.75H2.25V11.25C2.25 11.8023 2.69772 12.25 3.25 12.25H10.75C11.3023 12.25 11.75 11.8023 11.75 11.25V8.75H12.75V11.25C12.75 12.3546 11.8546 13.25 10.75 13.25H3.25C2.14543 13.25 1.25 12.3546 1.25 11.25Z" fill="#0095FF"/>
</svg>
