<svg width="24" height="24" viewBox="0 0 24 24" fill="none" xmlns="http://www.w3.org/2000/svg">
<path d="M10.767 4.11252C10.4012 4.12027 10.0739 4.34885 9.94294 4.69367L7.07406 12.2332C6.7737 13.0546 7.42834 13.9108 8.29093 13.8256L9.0611 13.752C9.24209 13.7559 9.36532 13.9341 9.3037 14.1045L7.78262 18.2966C7.32822 19.5752 8.91477 20.5786 9.86593 19.6178L17.8487 11.3692C18.5111 10.6835 18.0875 9.53278 17.1402 9.44754L16.7512 9.41267C16.551 9.38167 16.4547 9.14921 16.5741 8.98261L18.7883 5.9296C19.3429 5.10048 18.7421 3.98466 17.7486 4.00016L10.767 4.11252Z" fill="url(#paint0_linear_239_3108)"/>
<circle cx="12" cy="12" r="11.75" stroke="#F1C898" stroke-width="0.5"/>
<defs>
<linearGradient id="paint0_linear_239_3108" x1="19.3227" y1="8.45554" x2="6.60533" y2="11.7113" gradientUnits="userSpaceOnUse">
<stop stop-color="#F0AAA4"/>
<stop offset="1" stop-color="#F6C271"/>
</linearGradient>
</defs>
</svg>
