<svg width="24" height="24" viewBox="0 0 24 24" fill="none" xmlns="http://www.w3.org/2000/svg">
<path d="M7.26632 3C8.1647 3 8.89301 3.72726 8.89301 4.62564V19.3733C8.89301 20.2707 8.1647 20.999 7.26736 20.999H5.37564C4.47831 20.999 3.75 20.2717 3.75 19.3733V4.62564C3.75 3.72831 4.47726 3 5.37564 3H7.26632ZM5.67928 5.57098C5.50881 5.57098 5.34533 5.6387 5.22479 5.75924C5.10425 5.87978 5.03653 6.04326 5.03653 6.21373V7.49922C5.03657 7.66966 5.1043 7.83311 5.22483 7.95363C5.34537 8.07414 5.50883 8.14184 5.67928 8.14184C5.84972 8.14184 6.01319 8.07414 6.13372 7.95363C6.25426 7.83311 6.32199 7.66966 6.32203 7.49922V6.21373C6.32203 6.04326 6.25431 5.87978 6.13377 5.75924C6.01323 5.6387 5.84975 5.57098 5.67928 5.57098ZM13.6969 5.57098C14.5942 5.57098 15.3215 6.29929 15.3215 7.19663V19.3733C15.3215 20.2707 14.5942 20.999 13.6969 20.999H11.8041C10.9068 20.999 10.1795 20.2717 10.1795 19.3733V7.19663C10.1795 6.29929 10.9068 5.57098 11.8041 5.57098H13.6969ZM12.1067 8.14405C11.9363 8.14405 11.7728 8.21177 11.6522 8.33231C11.5317 8.45284 11.464 8.61633 11.464 8.7868V10.0723C11.464 10.2427 11.5318 10.4062 11.6523 10.5267C11.7728 10.6472 11.9363 10.7149 12.1067 10.7149C12.2772 10.7149 12.4406 10.6472 12.5612 10.5267C12.6817 10.4062 12.7494 10.2427 12.7495 10.0723V8.78575C12.7495 8.61528 12.6818 8.4518 12.5612 8.33126C12.4407 8.21072 12.2772 8.14301 12.1067 8.14301V8.14405ZM20.1233 9.42954C21.0207 9.42954 21.749 10.1568 21.749 11.0541V19.3744C21.749 20.2717 21.0217 21 20.1233 21H18.2326C17.3353 21 16.607 20.2727 16.607 19.3744V11.0541C16.607 10.1568 17.3353 9.42954 18.2326 9.42954H20.1244H20.1233ZM18.5352 12.0005C18.3648 12.0005 18.2013 12.0682 18.0807 12.1888C17.9602 12.3093 17.8925 12.4728 17.8925 12.6433V13.9288C17.8925 14.0992 17.9603 14.2627 18.0808 14.3832C18.2013 14.5037 18.3648 14.5714 18.5352 14.5714C18.7057 14.5714 18.8691 14.5037 18.9897 14.3832C19.1102 14.2627 19.1779 14.0992 19.178 13.9288V12.6433C19.178 12.4728 19.1103 12.3093 18.9897 12.1888C18.8692 12.0682 18.7057 12.0005 18.5352 12.0005Z" fill="#B6BCC9"/>
</svg>
