<svg width="32" height="32" viewBox="0 0 32 32" fill="none" xmlns="http://www.w3.org/2000/svg">
<path fill-rule="evenodd" clip-rule="evenodd" d="M4 8.13333C4 6.66058 5.19391 5.46667 6.66667 5.46667H14.3895C15.0517 5.46667 15.6902 5.71306 16.1808 6.15789L17.1804 7.06432C17.4232 7.27386 17.8436 7.33333 18.0581 7.33333C18.0582 7.33333 18.0583 7.33333 18.0583 7.33333H25.3333C26.8061 7.33333 28 8.52724 28 10V18.767H18.9696L19.0067 19.0759H4V18.767V10.3465V8.13333Z" fill="url(#paint0_linear_293_21730)"/>
<path d="M6.1333 10.5333C6.1333 9.64968 6.84964 8.93333 7.7333 8.93333H24.2666C25.1503 8.93333 25.8666 9.64968 25.8666 10.5333H6.1333Z" fill="url(#paint1_linear_293_21730)"/>
<path d="M4 10.5323H28V23.8656C28 25.3384 26.8061 26.5323 25.3333 26.5323H6.66667C5.19391 26.5323 4 25.3384 4 23.8656V10.5323Z" fill="url(#paint2_linear_293_21730)"/>
<defs>
<linearGradient id="paint0_linear_293_21730" x1="11.7333" y1="5.33333" x2="11.8667" y2="10.4" gradientUnits="userSpaceOnUse">
<stop stop-color="#FFDF85"/>
<stop offset="0.182323" stop-color="#FFBE16"/>
<stop offset="1" stop-color="#FFAE0C"/>
</linearGradient>
<linearGradient id="paint1_linear_293_21730" x1="16" y1="8.93333" x2="16" y2="10.6667" gradientUnits="userSpaceOnUse">
<stop stop-color="white"/>
<stop offset="1" stop-color="white" stop-opacity="0.3"/>
</linearGradient>
<linearGradient id="paint2_linear_293_21730" x1="9.33333" y1="10.6667" x2="9.86667" y2="26.4" gradientUnits="userSpaceOnUse">
<stop stop-color="#FFECA6"/>
<stop offset="0.0632168" stop-color="#FFDA57"/>
<stop offset="0.919455" stop-color="#FFC933"/>
<stop offset="1" stop-color="#FFB800"/>
</linearGradient>
</defs>
</svg>
