<svg width="32" height="32" viewBox="0 0 32 32" fill="none" xmlns="http://www.w3.org/2000/svg">
<path fill-rule="evenodd" clip-rule="evenodd" d="M4 8.13322C4 6.66046 5.19391 5.46655 6.66667 5.46655H14.3895C15.0517 5.46655 15.6902 5.71295 16.1808 6.15778L17.1808 7.06459C17.4213 7.27194 17.8358 7.33221 18.0521 7.33333H25.3333C26.8061 7.33333 28 8.52724 28 10V18.767H18.9696L19.0067 19.0758H4V18.767V10.3465V8.13322Z" fill="url(#paint0_linear_2_8646)"/>
<path d="M6.13379 10.5333C6.13379 9.64969 6.85013 8.93335 7.73379 8.93335H24.2671C25.1508 8.93335 25.8671 9.64969 25.8671 10.5333H6.13379Z" fill="url(#paint1_linear_2_8646)"/>
<path d="M4 10.5322H28V23.8656C28 25.3383 26.8061 26.5322 25.3333 26.5322H6.66667C5.19391 26.5322 4 25.3383 4 23.8656V10.5322Z" fill="url(#paint2_linear_2_8646)"/>
<defs>
<linearGradient id="paint0_linear_2_8646" x1="11.7333" y1="5.33322" x2="11.8667" y2="10.3999" gradientUnits="userSpaceOnUse">
<stop stop-color="#FFDF85"/>
<stop offset="0.182323" stop-color="#FFBE16"/>
<stop offset="1" stop-color="#FFAE0C"/>
</linearGradient>
<linearGradient id="paint1_linear_2_8646" x1="16.0005" y1="8.93335" x2="16.0005" y2="10.6667" gradientUnits="userSpaceOnUse">
<stop stop-color="white"/>
<stop offset="1" stop-color="white" stop-opacity="0.3"/>
</linearGradient>
<linearGradient id="paint2_linear_2_8646" x1="9.33333" y1="10.6666" x2="9.86667" y2="26.4" gradientUnits="userSpaceOnUse">
<stop stop-color="#FFECA6"/>
<stop offset="0.0632168" stop-color="#FFDA57"/>
<stop offset="0.919455" stop-color="#FFC933"/>
<stop offset="1" stop-color="#FFB800"/>
</linearGradient>
</defs>
</svg>
