<svg width="14" height="14" viewBox="0 0 14 14" fill="none" xmlns="http://www.w3.org/2000/svg">
<mask id="mask0_2_8892" style="mask-type:luminance" maskUnits="userSpaceOnUse" x="0" y="0" width="14" height="14">
<rect y="14" width="14" height="14" transform="rotate(-90 0 14)" fill="white"/>
</mask>
<g mask="url(#mask0_2_8892)">
<path fill-rule="evenodd" clip-rule="evenodd" d="M2.80039 8.4001C3.57359 8.4001 4.20039 7.7733 4.20039 7.0001C4.20039 6.2269 3.57359 5.6001 2.80039 5.6001C2.02719 5.6001 1.40039 6.2269 1.40039 7.0001C1.40039 7.7733 2.02719 8.4001 2.80039 8.4001ZM8.40039 7.00015C8.40039 7.77335 7.77359 8.40015 7.00039 8.40015C6.22719 8.40015 5.60039 7.77335 5.60039 7.00015C5.60039 6.22696 6.22719 5.60015 7.00039 5.60015C7.77359 5.60015 8.40039 6.22696 8.40039 7.00015ZM12.6004 7.00015C12.6004 7.77335 11.9736 8.40015 11.2004 8.40015C10.4272 8.40015 9.80043 7.77335 9.80043 7.00015C9.80043 6.22696 10.4272 5.60015 11.2004 5.60015C11.9736 5.60015 12.6004 6.22696 12.6004 7.00015Z" fill="#03081A"/>
</g>
</svg>
