<svg width="45" height="45" viewBox="0 0 45 45" fill="none" xmlns="http://www.w3.org/2000/svg">
<rect width="45" height="45" fill="#D9D9D9" fill-opacity="0.01"/>
<path d="M42.0643 19.1648L23.6004 38.6035C23.0135 39.223 21.9881 39.223 21.3992 38.6035L2.93734 19.1648C2.47031 18.6732 2.4297 17.942 2.83987 17.4078L10.6393 7.22733C10.9175 6.86375 11.3642 6.64844 11.8373 6.64844H33.1643C33.6374 6.64844 34.0842 6.86375 34.3623 7.22733L42.1638 17.4078C42.5719 17.942 42.5313 18.6732 42.0643 19.1648Z" fill="url(#paint0_linear_279_1316)"/>
<path fill-rule="evenodd" clip-rule="evenodd" d="M20.2869 39.6604L1.82524 20.2219C1.82518 20.2218 1.82531 20.2219 1.82524 20.2219C0.843662 19.1885 0.748126 17.613 1.62274 16.4734C1.62262 16.4736 1.62287 16.4733 1.62274 16.4734L9.42092 6.29456C9.42073 6.29482 9.42112 6.2943 9.42092 6.29456C10.0018 5.53583 10.9076 5.11377 11.8372 5.11377H33.1642C34.0937 5.11377 34.9988 5.53501 35.5798 6.29364C35.58 6.29395 35.5802 6.29425 35.5805 6.29456L43.3825 16.4759C44.2526 17.6147 44.1578 19.1885 43.1763 20.2217C43.1762 20.2218 43.1763 20.2217 43.1763 20.2217L24.7138 39.6589C23.5209 40.9183 21.4795 40.915 20.2869 39.6604ZM42.0642 19.1647C42.5312 18.6731 42.5718 17.9419 42.1637 17.4077L34.3622 7.22725C34.084 6.86366 33.6373 6.64835 33.1642 6.64835H11.8372C11.3641 6.64835 10.9173 6.86366 10.6392 7.22725L2.83976 17.4077C2.42959 17.9419 2.4702 18.6731 2.93723 19.1647L21.3991 38.6034C21.988 39.2229 23.0134 39.2229 23.6002 38.6034L42.0642 19.1647Z" fill="url(#paint1_linear_279_1316)"/>
<path d="M16.3643 27.1094L18.4097 12.7866H20.4107L24.6152 23.083L26.6607 12.7866H28.637L26.5915 27.1094H24.5905L20.386 16.793L18.3405 27.1094H16.3643Z" fill="url(#paint2_linear_279_1316)"/>
<defs>
<linearGradient id="paint0_linear_279_1316" x1="42.2597" y1="18.4008" x2="2.55761" y2="17.5908" gradientUnits="userSpaceOnUse">
<stop stop-color="#342524"/>
<stop offset="1" stop-color="#63322E"/>
</linearGradient>
<linearGradient id="paint1_linear_279_1316" x1="43.978" y1="18.4135" x2="-11.7607" y2="18.9247" gradientUnits="userSpaceOnUse">
<stop offset="0.197461" stop-color="#FCB18E"/>
<stop offset="1" stop-color="#FFEA9E"/>
</linearGradient>
<linearGradient id="paint2_linear_279_1316" x1="16.8756" y1="13.2981" x2="29.153" y2="28.1286" gradientUnits="userSpaceOnUse">
<stop stop-color="#FFE1AC"/>
<stop offset="1" stop-color="#FFB796"/>
</linearGradient>
</defs>
</svg>
