<svg width="20" height="20" viewBox="0 0 20 20" fill="none" xmlns="http://www.w3.org/2000/svg">
<path d="M4.05231 2.37981C4.31314 1.98133 4.75729 1.74121 5.23354 1.74121H14.7774C15.2473 1.74121 15.6864 1.97505 15.9487 2.36496L19.2893 7.33062C19.6403 7.85248 19.6038 8.54366 19.1998 9.02564L11.1928 18.5762C10.6307 19.2466 9.60043 19.2496 9.03442 18.5825L0.91732 9.01595C0.512667 8.53904 0.470043 7.85272 0.812578 7.3294L4.05231 2.37981Z" fill="#E1E1E1"/>
<path fill-rule="evenodd" clip-rule="evenodd" d="M14.7774 2.32945H5.23354C4.95573 2.32945 4.69664 2.46952 4.54449 2.70196L1.30475 7.65156C1.10494 7.95682 1.12981 8.35718 1.36585 8.63538L9.48295 18.202C9.81313 18.5911 10.4141 18.5893 10.742 18.1982L18.749 8.64772C18.9847 8.36656 19.006 7.96338 18.8012 7.65896L15.4607 2.6933C15.3077 2.46585 15.0515 2.32945 14.7774 2.32945ZM5.23354 1.74121C4.75729 1.74121 4.31313 1.98133 4.05231 2.37981L0.812578 7.3294C0.470043 7.85272 0.512667 8.53904 0.91732 9.01595L9.03442 18.5825C9.60043 19.2496 10.6307 19.2466 11.1928 18.5762L19.1998 9.02564C19.6038 8.54366 19.6403 7.85248 19.2893 7.33062L15.9487 2.36496C15.6864 1.97505 15.2473 1.74121 14.7774 1.74121H5.23354Z" fill="#CCCBCB"/>
<path d="M6 7H7.46584L9.98758 11.9748H10.0248L12.5342 7H14L10.8199 13H9.18012L6 7Z" fill="white"/>
</svg>
