<svg width="24" height="24" viewBox="0 0 24 24" fill="none" xmlns="http://www.w3.org/2000/svg">
<path d="M8.61208 10.9041C8.61208 9.47898 9.76795 8.3264 11.1898 8.3264H16.644V7.57771C16.644 6.15258 15.4882 5 14.0663 5H7.57771C6.15258 5 5 6.15587 5 7.57771V14.0663C5 15.4915 6.15587 16.644 7.57771 16.644H8.6088V10.9041H8.61208Z" fill="url(#paint0_linear_239_3101)"/>
<path d="M17.4221 9.04883H11.9088C10.4836 9.04883 9.33105 10.2047 9.33105 11.6265V17.1399C9.33105 18.565 10.4869 19.7176 11.9088 19.7176H17.4221C18.8473 19.7176 19.9998 18.5617 19.9998 17.1399V11.6265C19.9998 10.2014 18.8473 9.04883 17.4221 9.04883ZM16.4534 14.3947L14.7722 16.4864C14.7163 16.5587 14.6145 16.5587 14.5587 16.4864L12.8775 14.3947C12.7921 14.2896 12.8578 14.1222 12.9858 14.1222H13.6787V12.4705H15.6555V14.1222H16.3483C16.4731 14.1254 16.5388 14.2896 16.4534 14.3947Z" fill="url(#paint1_linear_239_3101)"/>
<circle cx="12" cy="12" r="11.75" stroke="#F1C898" stroke-width="0.5"/>
<defs>
<linearGradient id="paint0_linear_239_3101" x1="17.1488" y1="7.34076" x2="1.98708" y2="15.1571" gradientUnits="userSpaceOnUse">
<stop stop-color="#F0ACAD"/>
<stop offset="1" stop-color="#F6C271"/>
</linearGradient>
<linearGradient id="paint1_linear_239_3101" x1="20.4623" y1="11.1935" x2="6.57048" y2="18.3552" gradientUnits="userSpaceOnUse">
<stop stop-color="#F0ACAD"/>
<stop offset="1" stop-color="#F6C271"/>
</linearGradient>
</defs>
</svg>
