<svg width="20" height="20" viewBox="0 0 20 20" fill="none" xmlns="http://www.w3.org/2000/svg">
<rect width="20" height="20" fill="#D9D9D9" fill-opacity="0.01"/>
<path d="M18.6952 8.51741L10.489 17.1568C10.2282 17.4322 9.77248 17.4322 9.51077 17.1568L1.30548 8.51741C1.09791 8.29894 1.07987 7.97394 1.26216 7.73652L4.72856 3.21188C4.8522 3.05028 5.05075 2.95459 5.26102 2.95459H14.7397C14.95 2.95459 15.1485 3.05028 15.2722 3.21188L18.7395 7.73652C18.9209 7.97394 18.9028 8.29894 18.6952 8.51741Z" fill="url(#paint0_linear_241_6666)"/>
<path fill-rule="evenodd" clip-rule="evenodd" d="M9.01663 17.6268L0.811436 8.98742C0.811406 8.98739 0.811465 8.98745 0.811436 8.98742C0.375178 8.52816 0.332717 7.82792 0.721436 7.32144C0.72138 7.32151 0.721491 7.32137 0.721436 7.32144L4.18729 2.7975C4.18721 2.79761 4.18738 2.79739 4.18729 2.7975C4.44548 2.46029 4.84804 2.27271 5.26119 2.27271H14.7399C15.153 2.27271 15.5553 2.45992 15.8134 2.79709C15.8135 2.79723 15.8137 2.79736 15.8138 2.7975L19.2813 7.32252C19.668 7.82866 19.6259 8.52814 19.1897 8.98735C19.1897 8.98737 19.1897 8.98733 19.1897 8.98735L10.9841 17.6261C10.4539 18.1858 9.54665 18.1844 9.01663 17.6268ZM18.6954 8.51756C18.903 8.29909 18.921 7.9741 18.7396 7.73667L15.2723 3.21203C15.1487 3.05043 14.9501 2.95474 14.7399 2.95474H5.26119C5.05091 2.95474 4.85237 3.05043 4.72873 3.21203L1.26233 7.73667C1.08003 7.9741 1.09808 8.29909 1.30565 8.51756L9.51093 17.157C9.77265 17.4323 10.2284 17.4323 10.4892 17.157L18.6954 8.51756Z" fill="url(#paint1_linear_241_6666)"/>
<path fill-rule="evenodd" clip-rule="evenodd" d="M9.60163 5.15292C8.48667 5.15292 7.58281 6.08343 7.58281 7.23128C7.58281 8.37913 8.48667 9.30964 9.60163 9.30964H9.72978C9.73477 9.30976 9.73977 9.30982 9.74479 9.30982H10.7592C11.3182 9.30982 11.7021 9.61002 11.7462 10.1334C11.7902 10.6567 11.4023 11.1087 10.9462 11.1087H7.60216C7.53167 11.1087 7.46983 11.1557 7.45094 11.2236L7.23142 12.0127C7.20359 12.1128 7.27881 12.2118 7.38264 12.2118H10.9462C12.0612 12.2118 12.9651 11.2812 12.9651 10.1334C12.9651 8.9855 12.0612 8.15291 10.9462 8.15291H10.7389C10.7351 8.15283 10.7312 8.15279 10.7274 8.15279H9.60163C9.15985 8.15279 8.80172 7.68609 8.80172 7.23128C8.80172 6.77647 9.15985 6.29987 9.60163 6.29987H11.5903C11.6615 6.29987 11.7239 6.25187 11.7421 6.18298L11.962 5.34986C11.9883 5.2503 11.9132 5.15283 11.8103 5.15283L9.60163 5.15292Z" fill="url(#paint2_linear_241_6666)"/>
<defs>
<linearGradient id="paint0_linear_241_6666" x1="18.7821" y1="8.17784" x2="1.13671" y2="7.81785" gradientUnits="userSpaceOnUse">
<stop stop-color="#342524"/>
<stop offset="1" stop-color="#63322E"/>
</linearGradient>
<linearGradient id="paint1_linear_241_6666" x1="19.546" y1="8.18369" x2="-5.22675" y2="8.41089" gradientUnits="userSpaceOnUse">
<stop offset="0.197461" stop-color="#FCB18E"/>
<stop offset="1" stop-color="#FFEA9E"/>
</linearGradient>
<linearGradient id="paint2_linear_241_6666" x1="12.1228" y1="4.79989" x2="7.7555" y2="12.3045" gradientUnits="userSpaceOnUse">
<stop stop-color="#E4B38F"/>
<stop offset="1" stop-color="#FEE2C1"/>
</linearGradient>
</defs>
</svg>
