<svg width="32" height="32" viewBox="0 0 32 32" fill="none" xmlns="http://www.w3.org/2000/svg">
<path d="M7.11538 3.5H17.8825C19.2654 3.5 20.5941 4.03748 21.5881 4.99893L24.8756 8.17882C25.9138 9.18301 26.5 10.5655 26.5 12.0099V26.9375C26.5 27.8005 25.7768 28.5 24.8846 28.5H7.11538C6.22321 28.5 5.5 27.8005 5.5 26.9375V5.0625C5.5 4.19953 6.22321 3.5 7.11538 3.5Z" fill="url(#paint0_linear_160_1648)"/>
<g filter="url(#filter0_di_160_1648)">
<path fill-rule="evenodd" clip-rule="evenodd" d="M15.6588 13.521C15.6588 12.7099 15.4406 12.0313 14.9876 11.5161L14.9858 11.5142C14.4919 10.9622 13.8071 10.7 12.9834 10.7H9.9002C9.5136 10.7 9.2002 11.0134 9.2002 11.4V20.6C9.2002 20.9866 9.5136 21.3 9.9002 21.3H12.994C13.8488 21.3 14.5681 21.093 15.0879 20.6374L15.0923 20.6333C15.6985 20.0803 15.9783 19.2424 15.9783 18.1848C15.9783 17.4795 15.845 16.8715 15.56 16.4152L15.5594 16.4144C15.3738 16.1194 15.1317 15.8844 14.8319 15.7145C14.831 15.7115 14.8303 15.7079 14.8299 15.7041C14.8296 15.7012 14.8295 15.6985 14.8295 15.6961C15.0228 15.5264 15.1833 15.3272 15.3122 15.0953L15.3165 15.0871C15.545 14.6442 15.6588 14.1189 15.6588 13.521ZM11.0465 14.8016V12.7445C11.0465 12.6893 11.0912 12.6445 11.1465 12.6445H12.6745C13.1476 12.6445 13.4182 12.7487 13.5733 12.8958C13.7051 13.027 13.8125 13.2828 13.8125 13.717C13.8125 14.1918 13.7055 14.4831 13.5642 14.6452C13.4187 14.7867 13.1407 14.9016 12.6532 14.9016H11.1465C11.0913 14.9016 11.0465 14.8569 11.0465 14.8016ZM11.0465 19.2554V16.9462C11.0465 16.8909 11.0912 16.8462 11.1465 16.8462H12.8449C13.3595 16.8462 13.6704 16.9638 13.8463 17.1357C14.0119 17.3078 14.1321 17.6204 14.1321 18.1568C14.1321 18.652 13.9854 18.9403 13.7426 19.12C13.5458 19.2647 13.2442 19.3554 12.813 19.3554H11.1465C11.0912 19.3554 11.0465 19.3106 11.0465 19.2554ZM22.8002 12.0005V11.4C22.8002 11.0134 22.4868 10.7 22.1002 10.7H16.6688C16.2822 10.7 15.9688 11.0134 15.9688 11.4V12.0005C15.9688 12.3871 16.2822 12.7005 16.6688 12.7005H18.3613C18.4166 12.7005 18.4613 12.7453 18.4613 12.8005V20.6C18.4613 20.9866 18.7747 21.3 19.1613 21.3H19.6076C19.9942 21.3 20.3076 20.9866 20.3076 20.6V12.8005C20.3076 12.7453 20.3524 12.7005 20.4076 12.7005H22.1002C22.4868 12.7005 22.8002 12.3871 22.8002 12.0005ZM16.6688 11L19.3845 11L22.1002 11H16.6688Z" fill="white"/>
</g>
<defs>
<filter id="filter0_di_160_1648" x="8.7002" y="10.4" width="14.5996" height="11.9001" filterUnits="userSpaceOnUse" color-interpolation-filters="sRGB">
<feFlood flood-opacity="0" result="BackgroundImageFix"/>
<feColorMatrix in="SourceAlpha" type="matrix" values="0 0 0 0 0 0 0 0 0 0 0 0 0 0 0 0 0 0 127 0" result="hardAlpha"/>
<feOffset dy="0.5"/>
<feGaussianBlur stdDeviation="0.25"/>
<feComposite in2="hardAlpha" operator="out"/>
<feColorMatrix type="matrix" values="0 0 0 0 0 0 0 0 0 0.709761 0 0 0 0 0.481809 0 0 0 1 0"/>
<feBlend mode="normal" in2="BackgroundImageFix" result="effect1_dropShadow_160_1648"/>
<feBlend mode="normal" in="SourceGraphic" in2="effect1_dropShadow_160_1648" result="shape"/>
<feColorMatrix in="SourceAlpha" type="matrix" values="0 0 0 0 0 0 0 0 0 0 0 0 0 0 0 0 0 0 127 0" result="hardAlpha"/>
<feOffset dy="-0.3"/>
<feGaussianBlur stdDeviation="0.15"/>
<feComposite in2="hardAlpha" operator="arithmetic" k2="-1" k3="1"/>
<feColorMatrix type="matrix" values="0 0 0 0 0.549637 0 0 0 0 0.938928 0 0 0 0 0.81298 0 0 0 1 0"/>
<feBlend mode="normal" in2="shape" result="effect2_innerShadow_160_1648"/>
</filter>
<linearGradient id="paint0_linear_160_1648" x1="16" y1="3.5" x2="16" y2="28.5" gradientUnits="userSpaceOnUse">
<stop stop-color="#84E1C1"/>
<stop offset="1" stop-color="#41D1A3"/>
</linearGradient>
</defs>
</svg>
