<svg width="22" height="22" viewBox="0 0 22 22" fill="none" xmlns="http://www.w3.org/2000/svg">
<path d="M16.167 12.3459C15.6654 12.3479 15.1708 12.4631 14.7212 12.6827C14.2716 12.9022 13.8788 13.2203 13.5728 13.6126C13.5345 13.6621 13.4802 13.6971 13.4189 13.7119C13.3576 13.7268 13.293 13.7205 13.2359 13.6942L8.64278 11.532C8.59582 11.51 8.55615 11.4753 8.52834 11.432C8.50054 11.3887 8.48574 11.3385 8.48568 11.2872V11.2586C8.48568 11.0893 8.47328 10.918 8.4464 10.7486C8.43717 10.6911 8.44709 10.6322 8.47467 10.5807C8.50225 10.5292 8.546 10.4879 8.59937 10.4631L13.2359 8.28447C13.293 8.25779 13.3577 8.25134 13.419 8.2662C13.4804 8.28106 13.5347 8.31633 13.5728 8.36607C14.1723 9.13306 15.1128 9.62671 16.167 9.63283C17.0371 9.63562 17.8732 9.29995 18.4942 8.69857C19.1152 8.09719 19.4711 7.27854 19.4847 6.42002C19.4875 5.99248 19.405 5.56858 19.2419 5.17251C19.0787 4.77644 18.8381 4.41596 18.5338 4.11166C18.2294 3.80735 17.8673 3.56518 17.4682 3.39897C17.069 3.23276 16.6406 3.14577 16.2073 3.14295C15.7741 3.14014 15.3445 3.22157 14.9432 3.38258C14.5418 3.54359 14.1765 3.78104 13.8682 4.08137C13.5598 4.38169 13.3144 4.73901 13.146 5.13293C12.9775 5.52685 12.8894 5.94965 12.8865 6.37718C12.8865 6.58933 12.9072 6.79536 12.9485 6.99731C12.9598 7.05637 12.951 7.11746 12.9233 7.17099C12.8956 7.22453 12.8507 7.26747 12.7956 7.29309L8.20869 9.4472C8.15066 9.47454 8.08475 9.48094 8.02244 9.46528C7.96012 9.44963 7.90534 9.41292 7.86762 9.36153C7.44864 8.78558 6.85071 8.36024 6.16455 8.15006C5.4784 7.93988 4.7415 7.95633 4.06569 8.19692C3.38987 8.43752 2.81204 8.88911 2.41989 9.48317C2.02775 10.0772 1.84269 10.7813 1.89281 11.4886C1.94293 12.1958 2.2255 12.8677 2.69762 13.4021C3.16974 13.9365 3.80564 14.3043 4.50881 14.4497C5.21198 14.5952 5.94403 14.5102 6.59385 14.2078C7.24368 13.9055 7.7758 13.4021 8.10947 12.7742C8.14223 12.7119 8.19825 12.6645 8.26572 12.642C8.33319 12.6196 8.40686 12.6238 8.47121 12.6539L12.7914 14.6856C12.8468 14.7109 12.8919 14.7538 12.9196 14.8075C12.9474 14.8611 12.9561 14.9223 12.9444 14.9814C12.8529 15.4526 12.8678 15.9379 12.9882 16.4028C13.1085 16.8677 13.3313 17.3006 13.6407 17.6707C13.95 18.0409 14.3383 18.3391 14.7778 18.5442C15.2174 18.7493 15.6974 18.8561 16.1835 18.8572C17.0585 18.855 17.8968 18.5099 18.5139 17.8978C19.1311 17.2858 19.4766 16.4568 19.4744 15.5934C19.4722 14.7299 19.1225 13.9027 18.5022 13.2937C17.882 12.6846 17.042 12.3437 16.167 12.3459ZM14.6291 4.84319C15.0446 4.43114 15.5965 4.20675 16.1835 4.20675C16.7727 4.20675 17.3246 4.43114 17.7401 4.84319C18.1535 5.25117 18.3829 5.79786 18.3829 6.37718C18.3829 6.95651 18.1556 7.50116 17.7401 7.91117C17.5363 8.11373 17.2937 8.27431 17.0265 8.38357C16.7593 8.49282 16.4728 8.54859 16.1835 8.54762C15.5965 8.54762 15.0466 8.32323 14.6291 7.91117C14.4241 7.71032 14.2615 7.4713 14.1508 7.20798C14.0401 6.94466 13.9834 6.66227 13.9842 6.37718C13.9842 5.79786 14.2115 5.25321 14.6291 4.84319ZM6.74312 12.7946C6.53934 12.9972 6.2968 13.1578 6.02959 13.267C5.76238 13.3763 5.47583 13.4321 5.18659 13.4311C4.59954 13.4311 4.04969 13.2067 3.63214 12.7946C3.42712 12.5938 3.26455 12.3548 3.15384 12.0915C3.04313 11.8281 2.98649 11.5457 2.9872 11.2607C2.9872 10.6813 3.21458 10.1367 3.63214 9.72667C4.04762 9.31665 4.59954 9.09022 5.18659 9.09022C5.77572 9.09022 6.32556 9.31461 6.74312 9.72667C7.15654 10.1346 7.38598 10.6813 7.38598 11.2607C7.38598 11.84 7.1586 12.3846 6.74312 12.7946ZM17.7401 17.1355C17.5363 17.3381 17.2937 17.4986 17.0265 17.6079C16.7593 17.7172 16.4728 17.7729 16.1835 17.772C15.5965 17.772 15.0466 17.5476 14.6291 17.1355C14.4241 16.9347 14.2615 16.6956 14.1508 16.4323C14.0401 16.169 13.9834 15.8866 13.9842 15.6015C13.9842 15.0222 14.2115 14.4775 14.6291 14.0675C15.0446 13.6575 15.5965 13.4311 16.1835 13.4311C16.7727 13.4311 17.3246 13.6555 17.7401 14.0675C18.1535 14.4755 18.3829 15.0222 18.3829 15.6015C18.3829 16.1808 18.1556 16.7255 17.7401 17.1355Z" fill="#0095FF"/>
</svg>
