<svg width="15" height="14" viewBox="0 0 15 14" fill="none" xmlns="http://www.w3.org/2000/svg">
<path d="M13.4699 8.68012H13.4698H1.44563C1.32463 8.68012 1.20858 8.72819 1.12301 8.81376C1.03745 8.89932 0.989382 9.01537 0.989382 9.13637C0.989382 9.25738 1.03745 9.37343 1.12301 9.45899C1.20858 9.54455 1.32463 9.59262 1.44563 9.59262H12.4724L9.53752 12.5275C9.53741 12.5276 9.53729 12.5278 9.53718 12.5279C9.49376 12.5699 9.45912 12.6201 9.43528 12.6756C9.41136 12.7313 9.39878 12.7912 9.39825 12.8517C9.39772 12.9123 9.40927 12.9724 9.43221 13.0285C9.45515 13.0845 9.48903 13.1355 9.53187 13.1783C9.57471 13.2212 9.62565 13.255 9.68172 13.278C9.73779 13.3009 9.79787 13.3125 9.85845 13.3119C9.91903 13.3114 9.9789 13.2988 10.0346 13.2749C10.0901 13.2511 10.1403 13.2164 10.1823 13.173C10.1824 13.1729 10.1825 13.1728 10.1827 13.1727L13.8773 9.47804L13.8773 9.47804C13.9628 9.39248 14.0109 9.27645 14.0109 9.15547C14.0109 9.03449 13.9628 8.91846 13.8773 8.8329L13.8773 8.83289L13.8764 8.83205C13.813 8.7716 13.7325 8.73133 13.6466 8.71597C13.5907 8.69239 13.5306 8.68019 13.4699 8.68012ZM1.52926 6.31987H1.52932H13.5543C13.6753 6.31987 13.7914 6.2718 13.8769 6.18624C13.9625 6.10068 14.0106 5.98463 14.0106 5.86362C14.0106 5.74262 13.9625 5.62657 13.8769 5.54101C13.7914 5.45544 13.6753 5.40737 13.5543 5.40737H2.52753L5.46275 2.47215C5.50618 2.43013 5.54082 2.37989 5.56468 2.32437C5.58859 2.2687 5.60117 2.20883 5.6017 2.14825C5.60223 2.08767 5.59068 2.02759 5.56774 1.97152C5.5448 1.91545 5.51092 1.86451 5.46808 1.82167C5.42525 1.77883 5.37431 1.74495 5.31823 1.72201C5.26216 1.69907 5.20208 1.68753 5.1415 1.68805C5.08092 1.68858 5.02105 1.70117 4.96539 1.72508C4.90986 1.74893 4.85963 1.78358 4.8176 1.82701L1.12265 5.52196L1.12265 5.52196C1.03711 5.60752 0.989062 5.72355 0.989062 5.84453C0.989062 5.96551 1.03711 6.08154 1.12265 6.1671L1.12264 6.16711L1.12351 6.16794C1.18684 6.2283 1.2665 6.26864 1.35252 6.28402C1.40844 6.30761 1.46853 6.3198 1.52926 6.31987Z" fill="#0095FF" stroke="#0095FF" stroke-width="0.1"/>
</svg>
