<svg width="24" height="24" viewBox="0 0 24 24" fill="none" xmlns="http://www.w3.org/2000/svg">
<path d="M22.2776 10.048C20.8585 15.0128 17.3247 16.2933 13.4683 16.2933H12.0008C12.0016 15.6518 12.0016 15.0106 12.0008 14.3695C12.0518 12.5575 11.4903 12.4981 10.5355 13.3179C10.5355 13.3179 4.47981 17.2059 3.93506 17.7824C3.39075 18.3597 3.93506 18.5273 3.93506 18.5273L10.5355 22.9905C11.4895 23.813 12.0008 23.6097 12.0008 22.1633C12.0008 20.5211 11.9845 20.7825 12.0008 20.7592C17.575 20.7592 22.8879 16.7083 23.0006 9.63131C23.0037 9.14288 22.4963 9.36465 22.2776 10.048ZM12.0008 8.8793V10.5004C11.9502 12.3524 12.5112 12.4114 13.4665 11.5908L20.0669 7.11787C20.0669 7.11787 20.5012 6.91854 20.0669 6.37247L13.4665 1.90135C12.5125 1.07893 12.0016 1.45164 12.0016 2.90065C12.0016 3.26235 12.0179 4.13537 12.0016 4.38838C6.4265 4.38838 1.11316 8.19462 1.00096 15.2839C0.998316 15.7723 1.50567 15.5506 1.72568 14.8646C3.14345 9.89225 6.67687 8.85598 10.535 8.85598L12.0008 8.8793Z" fill="#B6BCC9"/>
</svg>
