<svg width="24" height="24" viewBox="0 0 24 24" fill="none" xmlns="http://www.w3.org/2000/svg">
<g clip-path="url(#clip0_323_12880)">
<path d="M6.00118 18.3481H18.0008C21.3144 18.3481 24.002 15.8854 24.002 12.8428C24.002 10.2635 22.0676 8.10142 19.4612 7.50266C19.071 4.04283 15.8794 1.3335 11.9997 1.3335C8.11989 1.3335 4.92829 4.04283 4.54085 7.50266C1.93176 8.10684 0 10.2743 0 12.8428C0 15.8826 2.68766 18.3509 6.00118 18.3509V18.3481ZM14.3053 6.83887C14.435 6.8392 14.5633 6.86539 14.6828 6.91592C14.8023 6.96645 14.9104 7.04029 15.001 7.13314C15.0916 7.22598 15.1627 7.33595 15.2103 7.45662C15.2578 7.57729 15.2808 7.70624 15.278 7.83591V13.7423H16.6082C16.6946 13.7487 16.7767 13.7822 16.8429 13.838C16.9092 13.8938 16.9561 13.9691 16.9771 14.0531C16.9981 14.1371 16.9921 14.2256 16.9599 14.306C16.9278 14.3864 16.8711 14.4546 16.7979 14.5009L13.9287 16.1265C13.8342 16.1754 13.7244 16.1857 13.6223 16.1554C13.5203 16.1251 13.434 16.0565 13.3814 15.9639C13.3462 15.901 13.3276 15.8301 13.3272 15.758V7.83591C13.3269 7.70711 13.3519 7.5795 13.4009 7.46037C13.4498 7.34124 13.5218 7.23292 13.6126 7.1416C13.7034 7.05027 13.8113 6.97773 13.9302 6.92811C14.049 6.87849 14.1765 6.85277 14.3053 6.85242V6.83887ZM6.91423 11.2822C6.82968 11.2895 6.74494 11.2704 6.67173 11.2275C6.59853 11.1845 6.5405 11.1199 6.50567 11.0425C6.47084 10.9651 6.46095 10.8788 6.47735 10.7955C6.49376 10.7123 6.53566 10.6362 6.59724 10.5778L9.98662 7.46744C10.0454 7.41354 10.1187 7.37802 10.1975 7.36525C10.2762 7.35247 10.357 7.363 10.4298 7.39553C10.5027 7.42807 10.5644 7.48119 10.6075 7.54836C10.6505 7.61553 10.673 7.69382 10.6721 7.77359V15.5792C10.6499 15.8222 10.5376 16.0481 10.3574 16.2125C10.1772 16.377 9.94206 16.4682 9.69808 16.4682C9.4541 16.4682 9.21892 16.377 9.03872 16.2125C8.85851 16.0481 8.74629 15.8222 8.72407 15.5792V11.2822H6.91423ZM4.02337 20.6023C3.75101 20.6045 3.49053 20.7142 3.2987 20.9075C3.10687 21.1009 2.99923 21.3622 2.99924 21.6346C2.99852 21.7694 3.02438 21.9031 3.07532 22.0279C3.12627 22.1528 3.20131 22.2664 3.29616 22.3622C3.391 22.4581 3.5038 22.5343 3.62811 22.5866C3.75242 22.6389 3.88581 22.6661 4.02066 22.6668H19.9787C20.2505 22.6654 20.5107 22.5562 20.7022 22.3632C20.8937 22.1702 21.0008 21.9091 21.0001 21.6373C21.0008 21.5024 20.9749 21.3688 20.924 21.2439C20.8731 21.1191 20.798 21.0055 20.7032 20.9096C20.6083 20.8137 20.4955 20.7375 20.3712 20.6853C20.2469 20.633 20.1135 20.6057 19.9787 20.605H4.02337V20.6023Z" fill="#0095FF"/>
</g>
<defs>
<clipPath id="clip0_323_12880">
<rect width="24" height="24" fill="white"/>
</clipPath>
</defs>
</svg>
