<svg width="32" height="32" viewBox="0 0 32 32" fill="none" xmlns="http://www.w3.org/2000/svg">
<path d="M7.11538 3.5H17.8825C19.2654 3.5 20.5941 4.03748 21.5881 4.99893L24.8756 8.17882C25.9138 9.18301 26.5 10.5655 26.5 12.0099V26.9375C26.5 27.8005 25.7768 28.5 24.8846 28.5H7.11538C6.22321 28.5 5.5 27.8005 5.5 26.9375V5.0625C5.5 4.19953 6.22321 3.5 7.11538 3.5Z" fill="url(#paint0_linear_160_1689)"/>
<g filter="url(#filter0_dii_160_1689)">
<path fill-rule="evenodd" clip-rule="evenodd" d="M14.2807 12.1292C13.3919 11.6015 12.2666 12.242 12.2666 13.2757V18.7244C12.2666 19.758 13.3919 20.3986 14.2807 19.8708L18.869 17.1465C19.7392 16.6298 19.7392 15.3702 18.869 14.8535L14.2807 12.1292Z" fill="url(#paint1_linear_160_1689)"/>
</g>
<defs>
<filter id="filter0_dii_160_1689" x="11.5444" y="11.6069" width="8.69933" height="9.89741" filterUnits="userSpaceOnUse" color-interpolation-filters="sRGB">
<feFlood flood-opacity="0" result="BackgroundImageFix"/>
<feColorMatrix in="SourceAlpha" type="matrix" values="0 0 0 0 0 0 0 0 0 0 0 0 0 0 0 0 0 0 127 0" result="hardAlpha"/>
<feOffset dy="0.722222"/>
<feGaussianBlur stdDeviation="0.361111"/>
<feComposite in2="hardAlpha" operator="out"/>
<feColorMatrix type="matrix" values="0 0 0 0 0.425399 0 0 0 0 0.430079 0 0 0 0 0.954167 0 0 0 1 0"/>
<feBlend mode="normal" in2="BackgroundImageFix" result="effect1_dropShadow_160_1689"/>
<feBlend mode="normal" in="SourceGraphic" in2="effect1_dropShadow_160_1689" result="shape"/>
<feColorMatrix in="SourceAlpha" type="matrix" values="0 0 0 0 0 0 0 0 0 0 0 0 0 0 0 0 0 0 127 0" result="hardAlpha"/>
<feOffset dy="-0.333333"/>
<feGaussianBlur stdDeviation="0.333333"/>
<feComposite in2="hardAlpha" operator="arithmetic" k2="-1" k3="1"/>
<feColorMatrix type="matrix" values="0 0 0 0 0.623529 0 0 0 0 0.631373 0 0 0 0 1 0 0 0 1 0"/>
<feBlend mode="normal" in2="shape" result="effect2_innerShadow_160_1689"/>
<feColorMatrix in="SourceAlpha" type="matrix" values="0 0 0 0 0 0 0 0 0 0 0 0 0 0 0 0 0 0 127 0" result="hardAlpha"/>
<feOffset dy="0.333333"/>
<feGaussianBlur stdDeviation="0.5"/>
<feComposite in2="hardAlpha" operator="arithmetic" k2="-1" k3="1"/>
<feColorMatrix type="matrix" values="0 0 0 0 0.879167 0 0 0 0 0.881765 0 0 0 0 1 0 0 0 1 0"/>
<feBlend mode="normal" in2="effect2_innerShadow_160_1689" result="effect3_innerShadow_160_1689"/>
</filter>
<linearGradient id="paint0_linear_160_1689" x1="16" y1="3.5" x2="16" y2="28.5" gradientUnits="userSpaceOnUse">
<stop stop-color="#A8AAFF"/>
<stop offset="1" stop-color="#8586FF"/>
</linearGradient>
<linearGradient id="paint1_linear_160_1689" x1="16.5333" y1="14.7333" x2="16.553" y2="20.2749" gradientUnits="userSpaceOnUse">
<stop stop-color="white"/>
<stop offset="1" stop-color="#E1E2FF"/>
</linearGradient>
</defs>
</svg>
